<svg width="173" height="107" xmlns="http://www.w3.org/2000/svg"><g fill="none" fill-rule="evenodd"><path d="M0 0h173v107H0z"/><path d="M5 4h74a4 4 0 0 1 4 4v74a4 4 0 0 1-4 4H5a4 4 0 0 1-4-4V8a4 4 0 0 1 4-4z" fill="#FFF" fill-rule="nonzero"/><path d="M6.614 5.614h70.771a4 4 0 0 1 4 4v70.771a4 4 0 0 1-4 4H6.614a4 4 0 0 1-4-4V9.614a4 4 0 0 1 4-4z" stroke="#000"/><path d="M5 79.197A2.803 2.803 0 0 0 7.803 82h68.394A2.803 2.803 0 0 0 79 79.197V10.803A2.803 2.803 0 0 0 76.197 8H7.803A2.803 2.803 0 0 0 5 10.803v68.394zm3.512-10.792c0-.196.052-.39.15-.56l32.368-56.06a1.121 1.121 0 0 1 1.942 0l32.367 56.06a1.12 1.12 0 0 1-.971 1.682H9.633a1.12 1.12 0 0 1-1.12-1.122h-.001z" fill="#0D69E1" fill-rule="nonzero"/><path d="M22.469 60.922l-4.883 7.324h6.836l2.93-7.324h-4.883zm17.334 0l-.977 7.324h6.348l-.977-7.324h-4.394zm16.845 0l2.93 7.324h6.836l-4.883-7.324h-4.883zm-22.076 2.982a2.185 2.185 0 0 1-4.24-1.057l3.2-12.833a.919.919 0 0 1 .242-.428l5.785-5.784V31.579c0-.411.219-.79.574-.996l2.969-1.714a2.303 2.303 0 0 1 2.3 0l7.323 4.229a2.3 2.3 0 0 1 1.15 1.99v8.05a1.725 1.725 0 1 1-3.45 0v-6.853a.92.92 0 0 0-.46-.797l-3.105-1.793v9.65c0 .305-.121.597-.337.813l-9.182 9.182a.92.92 0 0 0-.242.428l-2.527 10.136z" fill="#000" fill-rule="nonzero"/><path d="M46.22 46.087l-3.198 3.199 8.765 15.182a2.185 2.185 0 0 0 3.784-2.185l-9.35-16.196h-.001zm-7.811-4.764v-4.879l-6.567 6.567a1.725 1.725 0 1 0 2.44 2.439l4.127-4.127zm-1.297-15.786c0 1.813 1.288 3.426 2.913 3.426 1.787 0 4.875-1.813 4.875-4.4 0-1.85-1.537-3.2-3.25-3.2-2.725 0-4.538 2.087-4.538 4.174z" fill="#000" fill-rule="nonzero"/><g></svg>